<mxfile host="65bd71144e">
    <diagram id="kgpKYQtTHZ0yAKxKKP6v" name="Page-1">
        <mxGraphModel dx="1242" dy="615" grid="1" gridSize="10" guides="1" tooltips="1" connect="1" arrows="1" fold="1" page="1" pageScale="1" pageWidth="850" pageHeight="1100" math="0" shadow="0">
            <root>
                <mxCell id="0"/>
                <mxCell id="1" parent="0"/>
                <mxCell id="3nuBFxr9cyL0pnOWT2aG-1" value="Sensor" style="shape=umlLifeline;perimeter=lifelinePerimeter;container=1;collapsible=0;recursiveResize=0;rounded=0;shadow=0;strokeWidth=1;" parent="1" vertex="1">
                    <mxGeometry x="120" y="80" width="100" height="200" as="geometry"/>
                </mxCell>
                <mxCell id="3nuBFxr9cyL0pnOWT2aG-2" value="" style="points=[];perimeter=orthogonalPerimeter;rounded=0;shadow=0;strokeWidth=1;" parent="3nuBFxr9cyL0pnOWT2aG-1" vertex="1">
                    <mxGeometry x="45" y="70" width="10" height="130" as="geometry"/>
                </mxCell>
                <mxCell id="3nuBFxr9cyL0pnOWT2aG-5" value="Temperature" style="shape=umlLifeline;perimeter=lifelinePerimeter;container=1;collapsible=0;recursiveResize=0;rounded=0;shadow=0;strokeWidth=1;" parent="1" vertex="1">
                    <mxGeometry x="300" y="80" width="120" height="120" as="geometry"/>
                </mxCell>
                <mxCell id="3nuBFxr9cyL0pnOWT2aG-6" value="" style="points=[];perimeter=orthogonalPerimeter;rounded=0;shadow=0;strokeWidth=1;" parent="3nuBFxr9cyL0pnOWT2aG-5" vertex="1">
                    <mxGeometry x="55" y="80" width="10" height="40" as="geometry"/>
                </mxCell>
                <mxCell id="3nuBFxr9cyL0pnOWT2aG-7" value="getValue" style="verticalAlign=bottom;endArrow=open;dashed=1;endSize=8;shadow=0;strokeWidth=1;" parent="1" source="3nuBFxr9cyL0pnOWT2aG-5" target="3nuBFxr9cyL0pnOWT2aG-1" edge="1">
                    <mxGeometry relative="1" as="geometry">
                        <mxPoint x="275" y="236" as="targetPoint"/>
                        <Array as="points">
                            <mxPoint x="320" y="200"/>
                            <mxPoint x="240" y="200"/>
                        </Array>
                    </mxGeometry>
                </mxCell>
                <mxCell id="3nuBFxr9cyL0pnOWT2aG-8" value="check" style="verticalAlign=bottom;endArrow=block;entryX=0;entryY=0;shadow=0;strokeWidth=1;" parent="1" source="3nuBFxr9cyL0pnOWT2aG-2" target="3nuBFxr9cyL0pnOWT2aG-6" edge="1">
                    <mxGeometry relative="1" as="geometry">
                        <mxPoint x="275" y="160" as="sourcePoint"/>
                    </mxGeometry>
                </mxCell>
                <mxCell id="Fh91LAsuXrnw5J4eEz23-1" value="DataCenter" style="shape=umlLifeline;participant=umlActor;perimeter=lifelinePerimeter;whiteSpace=wrap;html=1;container=1;collapsible=0;recursiveResize=0;verticalAlign=top;spacingTop=36;outlineConnect=0;" parent="1" vertex="1">
                    <mxGeometry x="30" y="80" width="20" height="360" as="geometry"/>
                </mxCell>
                <mxCell id="Fh91LAsuXrnw5J4eEz23-2" value="" style="html=1;points=[];perimeter=orthogonalPerimeter;" parent="Fh91LAsuXrnw5J4eEz23-1" vertex="1">
                    <mxGeometry x="5" y="70" width="10" height="290" as="geometry"/>
                </mxCell>
                <mxCell id="3nuBFxr9cyL0pnOWT2aG-3" value="handle" style="verticalAlign=bottom;startArrow=oval;endArrow=block;startSize=8;shadow=0;strokeWidth=1;" parent="1" source="Fh91LAsuXrnw5J4eEz23-1" target="3nuBFxr9cyL0pnOWT2aG-2" edge="1">
                    <mxGeometry relative="1" as="geometry">
                        <mxPoint x="105" y="150" as="sourcePoint"/>
                        <Array as="points">
                            <mxPoint x="90" y="150"/>
                        </Array>
                    </mxGeometry>
                </mxCell>
                <mxCell id="Fh91LAsuXrnw5J4eEz23-3" value="Humidity" style="shape=umlLifeline;perimeter=lifelinePerimeter;whiteSpace=wrap;html=1;container=1;collapsible=0;recursiveResize=0;outlineConnect=0;" parent="1" vertex="1">
                    <mxGeometry x="480" y="80" width="100" height="200" as="geometry"/>
                </mxCell>
                <mxCell id="Fh91LAsuXrnw5J4eEz23-4" value="" style="html=1;points=[];perimeter=orthogonalPerimeter;" parent="Fh91LAsuXrnw5J4eEz23-3" vertex="1">
                    <mxGeometry x="45" y="160" width="10" height="40" as="geometry"/>
                </mxCell>
                <mxCell id="Fh91LAsuXrnw5J4eEz23-5" value="check" style="html=1;verticalAlign=bottom;endArrow=block;rounded=0;" parent="1" source="3nuBFxr9cyL0pnOWT2aG-1" target="Fh91LAsuXrnw5J4eEz23-3" edge="1">
                    <mxGeometry x="0.5028" width="80" relative="1" as="geometry">
                        <mxPoint x="190" y="250" as="sourcePoint"/>
                        <mxPoint x="480" y="300" as="targetPoint"/>
                        <Array as="points">
                            <mxPoint x="350" y="240"/>
                        </Array>
                        <mxPoint as="offset"/>
                    </mxGeometry>
                </mxCell>
                <mxCell id="Fh91LAsuXrnw5J4eEz23-6" value="getValue" style="html=1;verticalAlign=bottom;endArrow=open;dashed=1;endSize=8;rounded=0;" parent="1" source="Fh91LAsuXrnw5J4eEz23-3" target="3nuBFxr9cyL0pnOWT2aG-1" edge="1">
                    <mxGeometry x="-0.5028" relative="1" as="geometry">
                        <mxPoint x="480" y="300" as="sourcePoint"/>
                        <mxPoint x="400" y="300" as="targetPoint"/>
                        <Array as="points">
                            <mxPoint x="450" y="280"/>
                        </Array>
                        <mxPoint as="offset"/>
                    </mxGeometry>
                </mxCell>
                <mxCell id="Fh91LAsuXrnw5J4eEz23-7" value="Email" style="shape=umlLifeline;perimeter=lifelinePerimeter;whiteSpace=wrap;html=1;container=1;collapsible=0;recursiveResize=0;outlineConnect=0;" parent="1" vertex="1">
                    <mxGeometry x="650" y="80" width="100" height="280" as="geometry"/>
                </mxCell>
                <mxCell id="Fh91LAsuXrnw5J4eEz23-8" value="" style="html=1;points=[];perimeter=orthogonalPerimeter;" parent="Fh91LAsuXrnw5J4eEz23-7" vertex="1">
                    <mxGeometry x="45" y="240" width="10" height="40" as="geometry"/>
                </mxCell>
                <mxCell id="Fh91LAsuXrnw5J4eEz23-9" value="alert" style="html=1;verticalAlign=bottom;endArrow=block;rounded=0;" parent="1" source="Fh91LAsuXrnw5J4eEz23-2" target="Fh91LAsuXrnw5J4eEz23-7" edge="1">
                    <mxGeometry x="0.6623" width="80" relative="1" as="geometry">
                        <mxPoint x="400" y="300" as="sourcePoint"/>
                        <mxPoint x="480" y="300" as="targetPoint"/>
                        <Array as="points">
                            <mxPoint x="450" y="320"/>
                        </Array>
                        <mxPoint as="offset"/>
                    </mxGeometry>
                </mxCell>
                <mxCell id="Fh91LAsuXrnw5J4eEz23-10" value="notified" style="html=1;verticalAlign=bottom;endArrow=open;dashed=1;endSize=8;rounded=0;" parent="1" source="Fh91LAsuXrnw5J4eEz23-7" target="Fh91LAsuXrnw5J4eEz23-1" edge="1">
                    <mxGeometry x="-0.6623" relative="1" as="geometry">
                        <mxPoint x="480" y="300" as="sourcePoint"/>
                        <mxPoint x="400" y="300" as="targetPoint"/>
                        <Array as="points">
                            <mxPoint x="440" y="360"/>
                        </Array>
                        <mxPoint as="offset"/>
                    </mxGeometry>
                </mxCell>
                <mxCell id="Fh91LAsuXrnw5J4eEz23-11" value="Register" style="shape=umlLifeline;perimeter=lifelinePerimeter;whiteSpace=wrap;html=1;container=1;collapsible=0;recursiveResize=0;outlineConnect=0;" parent="1" vertex="1">
                    <mxGeometry x="820" y="80" width="100" height="360" as="geometry"/>
                </mxCell>
                <mxCell id="Fh91LAsuXrnw5J4eEz23-12" value="" style="html=1;points=[];perimeter=orthogonalPerimeter;" parent="1" vertex="1">
                    <mxGeometry x="865" y="400" width="10" height="40" as="geometry"/>
                </mxCell>
                <mxCell id="Fh91LAsuXrnw5J4eEz23-13" value="write" style="html=1;verticalAlign=bottom;endArrow=block;rounded=0;" parent="1" source="Fh91LAsuXrnw5J4eEz23-2" target="Fh91LAsuXrnw5J4eEz23-11" edge="1">
                    <mxGeometry x="0.7729" width="80" relative="1" as="geometry">
                        <mxPoint x="400" y="300" as="sourcePoint"/>
                        <mxPoint x="480" y="300" as="targetPoint"/>
                        <Array as="points">
                            <mxPoint x="510" y="400"/>
                        </Array>
                        <mxPoint as="offset"/>
                    </mxGeometry>
                </mxCell>
                <mxCell id="Fh91LAsuXrnw5J4eEz23-14" value="read" style="html=1;verticalAlign=bottom;endArrow=open;dashed=1;endSize=8;rounded=0;" parent="1" source="Fh91LAsuXrnw5J4eEz23-11" target="Fh91LAsuXrnw5J4eEz23-1" edge="1">
                    <mxGeometry x="-0.7729" relative="1" as="geometry">
                        <mxPoint x="480" y="300" as="sourcePoint"/>
                        <mxPoint x="400" y="300" as="targetPoint"/>
                        <Array as="points">
                            <mxPoint x="530" y="440"/>
                        </Array>
                        <mxPoint as="offset"/>
                    </mxGeometry>
                </mxCell>
            </root>
        </mxGraphModel>
    </diagram>
</mxfile>